{"materials":[{"name":"扫光_alpha","pbrMetallicRoughness":{"baseColorTexture":{"index":0,"texCoord":0,"extensions":{"textureExtensions":[{"index":0,"texCoord":0,"extensions":{"scrollAnim":{"speed":[0.0,-0.3]}}}]}},"baseColorFactor":[1.0,1.0,1.0,1.0],"metallicFactor":0,"roughnessFactor":1},"alphaMode":"BLEND","doubleSided":true},{"name":"地面光环","pbrMetallicRoughness":{"baseColorTexture":{"index":1,"texCoord":0},"baseColorFactor":[1.0,1.0,1.0,1.0],"metallicFactor":0,"roughnessFactor":1},"alphaMode":"BLEND","doubleSided":true},{"name":"青_alpha","pbrMetallicRoughness":{"baseColorFactor":[0.156862751,0.972549,1.0,0.8],"metallicFactor":0,"roughnessFactor":1},"alphaMode":"BLEND","doubleSided":true},{"name":"W","pbrMetallicRoughness":{"baseColorFactor":[1.0,1.0,1.0,1.0],"metallicFactor":0,"roughnessFactor":1},"alphaMode":"OPAQUE","doubleSided":true}],"images":[{"uri":"HW7GJJ6YE11CD3ZV4Z18MEU7PJTNDJW7G.png"},{"uri":"WW8OHYKTUNO414UEEDYSRA1VCUT7MW6ST.png"}],"textures":[{"name":"渐变扫光_青.png","sampler":0,"source":0},{"name":"光环_青.png","sampler":0,"source":1}],"meshes":[{"name":"revolvedSurface1","primitives":[{"material":0,"mode":4,"indices":2,"attributes":{"COLOR_0":5,"NORMAL":4,"POSITION":3,"TEXCOORD_0":6}}]},{"name":"Plane001","primitives":[{"material":1,"mode":4,"indices":7,"attributes":{"NORMAL":9,"POSITION":8,"TEXCOORD_0":10}}]},{"name":"Torus001","primitives":[{"material":2,"mode":4,"indices":11,"attributes":{"NORMAL":13,"POSITION":12,"TEXCOORD_0":14}}]},{"name":"Box001","primitives":[{"material":3,"mode":4,"indices":15,"attributes":{"NORMAL":17,"POSITION":16,"TEXCOORD_0":18}}]}],"buffers":[{"byteLength":32491,"uri":"90KRD7TOOH27XZ072JWVPT8N5F7V47DOO.bin"}],"bufferViews":[{"buffer":0,"byteLength":440,"byteOffset":0},{"buffer":0,"byteLength":1008,"byteOffset":544},{"buffer":0,"target":34963,"byteLength":5210,"byteOffset":1552},{"buffer":0,"target":34962,"byteLength":5316,"byteOffset":6892},{"buffer":0,"target":34962,"byteLength":5628,"byteOffset":12208},{"buffer":0,"target":34962,"byteLength":7088,"byteOffset":17888},{"buffer":0,"target":34962,"byteLength":3752,"byteOffset":24976},{"buffer":0,"target":34963,"byteLength":12,"byteOffset":28650},{"buffer":0,"target":34962,"byteLength":204,"byteOffset":28636},{"buffer":0,"target":34962,"byteLength":48,"byteOffset":28840},{"buffer":0,"target":34962,"byteLength":136,"byteOffset":28732},{"buffer":0,"target":34963,"byteLength":262,"byteOffset":28790},{"buffer":0,"target":34962,"byteLength":756,"byteOffset":29052},{"buffer":0,"target":34962,"byteLength":444,"byteOffset":29808},{"buffer":0,"target":34962,"byteLength":504,"byteOffset":30252},{"buffer":0,"target":34963,"byteLength":46,"byteOffset":30678},{"buffer":0,"target":34962,"byteLength":444,"byteOffset":30724},{"buffer":0,"target":34962,"byteLength":132,"byteOffset":31168},{"buffer":0,"target":34962,"byteLength":296,"byteOffset":31300}],"accessors":[{"componentType":5126,"type":"SCALAR","bufferView":0,"byteOffset":0,"byteType":584,"count":110,"min":[0.0],"max":[4.0]},{"componentType":5126,"type":"VEC3","bufferView":1,"byteOffset":0,"byteType":737,"count":84},{"componentType":5123,"type":"SCALAR","bufferView":2,"byteOffset":0,"byteType":1346,"count":2605},{"componentType":5126,"type":"VEC3","bufferView":3,"byteOffset":0,"byteType":1049,"count":443,"min":[-121.378623962402,0.0,-121.378623962402],"max":[121.378623962402,400.0,121.378623962402]},{"componentType":5126,"type":"VEC3","bufferView":4,"byteOffset":0,"byteType":353,"count":469},{"componentType":5126,"type":"VEC4","bufferView":5,"byteOffset":0,"byteType":1677,"count":443},{"componentType":5126,"type":"VEC2","bufferView":6,"byteOffset":0,"byteType":1642,"count":469},{"componentType":5123,"type":"SCALAR","bufferView":7,"byteOffset":0,"byteType":1810,"count":6},{"componentType":5126,"type":"VEC3","bufferView":8,"byteOffset":0,"byteType":422,"count":17,"min":[-1.29999995231628,-1.29999995231628,0.0],"max":[1.29999995231628,1.29999995231628,0.0]},{"componentType":5126,"type":"VEC3","bufferView":9,"byteOffset":0,"byteType":1690,"count":4},{"componentType":5126,"type":"VEC2","bufferView":10,"byteOffset":0,"byteType":1882,"count":17},{"componentType":5123,"type":"SCALAR","bufferView":11,"byteOffset":0,"byteType":1775,"count":131},{"componentType":5126,"type":"VEC3","bufferView":12,"byteOffset":0,"byteType":482,"count":63,"min":[-0.620000004768372,-0.620000004768372,0.0600000023841858],"max":[0.620000004768372,0.620000004768372,0.0677098855376244]},{"componentType":5126,"type":"VEC3","bufferView":13,"byteOffset":0,"byteType":1557,"count":37},{"componentType":5126,"type":"VEC2","bufferView":14,"byteOffset":0,"byteType":1139,"count":63},{"componentType":5123,"type":"SCALAR","bufferView":15,"byteOffset":0,"byteType":1717,"count":23},{"componentType":5126,"type":"VEC3","bufferView":16,"byteOffset":0,"byteType":1394,"count":37,"min":[-0.0500000007450581,-0.0500000007450581,0.0],"max":[0.0500000007450581,0.0500000007450581,0.100000001490116]},{"componentType":5126,"type":"VEC3","bufferView":17,"byteOffset":0,"byteType":1593,"count":11},{"componentType":5126,"type":"VEC2","bufferView":18,"byteOffset":0,"byteType":1005,"count":37}],"nodes":[{"name":"RootNode","translation":[0.0,0.0,0.0],"rotation":[0.0,0.0,0.0,1.0],"scale":[1.0,1.0,1.0],"children":[1,2,3,4]},{"name":"revolvedSurface1","translation":[0.0,0.0,0.0],"rotation":[2.1855694143369E-08,0.0,0.0,1.0],"scale":[0.00499999988824129,0.00999999977648258,0.00499999988824129],"mesh":0},{"name":"Torus001","translation":[4.65644856006975E-10,0.0,1.4210854715202E-14],"rotation":[-0.70710676908493,0.0,0.0,0.70710676908493],"scale":[1.0,1.0,0.5],"mesh":2,"extensions":{"effects":{"glow":1.0,"bloom":true}}},{"name":"Plane001","translation":[0.0,0.0,0.0],"rotation":[-0.70710676908493,0.0,0.0,0.70710676908493],"scale":[0.75,0.75,0.75],"mesh":1},{"name":"Box001","translation":[0.0,4.01999998092651,0.0],"rotation":[-0.70710676908493,0.0,0.0,0.70710676908493],"scale":[1.0,1.0,1.0],"mesh":3,"extensions":{"effects":{"glow":1.0,"bloom":true}}}],"animations":[{"name":"_defaultAnim_","channels":[{"sampler":0,"target":{"node":3,"path":"scale"}}],"samplers":[{"input":0,"interpolation":"LINEAR","output":1}]}],"asset":{"generator":"FBX2glTF","version":"2.0"},"scene":0,"scenes":[{"name":"Root Scene","nodes":[0]}],"samplers":[{}]}
